HIERARCHY
ROOT Hips
{
	OFFSET 0.000000 0.000000 0.000000
	CHANNELS 6 Xposition Yposition Zposition Zrotation Yrotation Xrotation 
	JOINT LowerBack
	{
		OFFSET 0.000000 0.000000 0.000000
		CHANNELS 3 Zrotation Yrotation Xrotation
		JOINT Spine
		{
			OFFSET 0.028270 2.035590 -0.193380
			CHANNELS 3 Zrotation Yrotation Xrotation
			JOINT Spine1
			{
				OFFSET 0.056720 2.048850 -0.042750
				CHANNELS 3 Zrotation Yrotation Xrotation
				JOINT Neck
				{
					OFFSET 0.000000 0.000000 0.000000
					CHANNELS 3 Zrotation Yrotation Xrotation
					JOINT Neck1
					{
						OFFSET -0.054170 1.746240 0.172020
						CHANNELS 3 Zrotation Yrotation Xrotation
						JOINT Head
						{
							OFFSET 0.104070 1.761360 -0.123970
							CHANNELS 3 Zrotation Yrotation Xrotation
							End Site
							{
								OFFSET 0.000000 0.000000 0.000000
							}
						}
					}
				}
				JOINT LeftShoulder
				{
					OFFSET 0.000000 0.000000 0.000000
					CHANNELS 3 Zrotation Yrotation Xrotation
					JOINT LeftArm
					{
						OFFSET 3.362410 1.200890 -0.311210
						CHANNELS 3 Zrotation Yrotation Xrotation
						JOINT LeftForeArm
						{
							OFFSET 4.983000 -0.000000 -0.000000
							CHANNELS 3 Zrotation Yrotation Xrotation
							JOINT LeftHand
							{
								OFFSET 3.483560 -0.000000 -0.000000
								CHANNELS 3 Zrotation Yrotation Xrotation
								JOINT LeftFingerBase
								{
									OFFSET 0.000000 0.000000 0.000000
									CHANNELS 3 Zrotation Yrotation Xrotation
									JOINT LeftHandIndex1
									{
										OFFSET 0.715260 -0.000000 -0.000000
										CHANNELS 3 Zrotation Yrotation Xrotation
										End Site
										{
											OFFSET 0.000000 0.000000 0.000000
										}
									}
								}
								JOINT LThumb
								{
									OFFSET 0.000000 0.000000 0.000000
									CHANNELS 3 Zrotation Yrotation Xrotation
									End Site
									{
										OFFSET 0.000000 0.000000 0.000000
									}
								}
							}
						}
					}
				}
				JOINT RightShoulder
				{
					OFFSET 0.000000 0.000000 0.000000
					CHANNELS 3 Zrotation Yrotation Xrotation
					JOINT RightArm
					{
						OFFSET -3.136600 1.374050 -0.404650
						CHANNELS 3 Zrotation Yrotation Xrotation
						JOINT RightForeArm
						{
							OFFSET -5.241900 -0.000000 -0.000000
							CHANNELS 3 Zrotation Yrotation Xrotation
							JOINT RightHand
							{
								OFFSET -3.444170 -0.000000 -0.000000
								CHANNELS 3 Zrotation Yrotation Xrotation
								JOINT RightFingerBase
								{
									OFFSET 0.000000 0.000000 0.000000
									CHANNELS 3 Zrotation Yrotation Xrotation
									JOINT RightHandIndex1
									{
										OFFSET -0.622530 -0.000000 -0.000000
										CHANNELS 3 Zrotation Yrotation Xrotation
										End Site
										{
											OFFSET 0.000000 0.000000 0.000000
										}
									}
								}
								JOINT RThumb
								{
									OFFSET 0.000000 0.000000 0.000000
									CHANNELS 3 Zrotation Yrotation Xrotation
									End Site
									{
										OFFSET 0.000000 0.000000 0.000000
									}
								}
							}
						}
					}
				}
			}
		}
	}
}
}
MOTION
Frames: 6
Frame Time: 0.008333
-1.042701 16.899675 -0.735932 41.105127 84.598832 44.456927 -4.381500 0.201111 -2.820512 -1.376441 0.404118 -2.832423 -4.966109 0.326999 2.753010 9.171406 -11.952346 -9.401181 -1.886866 -0.128097 -0.443899 0.000000 0.000000 0.000000 -6.235708 26.066966 0.889768 -77.867390 25.935419 5.959989 -3.506813 -23.663153 -0.014046 -4.297398 4.999319 -0.190729 -0.046440 -0.127828 -0.000000 0.000000 0.000000 0.000000 0.000000 0.000000 0.000000 11.191823 -6.549160 -0.230169 47.162696 12.784122 7.757171 1.839028 48.353030 0.010128 1.785212 4.738228 0.074759 0.050459 -0.149708 0.000000 0.000000 0.000000 0.000000 0.000000 0.000000 0.000000 
-0.858937 16.899723 -0.730286 39.558392 84.063722 42.765176 -4.628152 0.164461 -2.796915 -1.429718 0.385485 -2.838038 -4.997610 0.308200 2.729778 9.220877 -11.988870 -9.395127 -1.911048 -0.130119 -0.442499 0.000000 0.000000 0.000000 -6.179682 25.982830 0.869543 -77.516106 25.489655 5.906299 -3.524794 -23.548665 -0.013803 -4.201243 4.898508 -0.182519 -0.048461 -0.126439 -0.000000 0.000000 0.000000 0.000000 0.000000 0.000000 0.000000 11.318357 -6.564446 -0.263329 47.884084 12.315917 7.867241 1.870282 48.206476 0.010229 1.776308 4.744256 0.074374 0.052159 -0.147978 0.000000 0.000000 0.000000 0.000000 0.000000 0.000000 0.000000 
-0.677521 16.901065 -0.723890 38.230293 83.528126 41.296155 -4.862824 0.120094 -2.762345 -1.480122 0.358560 -2.842014 -5.028728 0.281319 2.707673 9.264735 -12.019373 -9.395119 -1.937476 -0.132223 -0.442822 0.000000 0.000000 0.000000 -6.109820 25.874451 0.857892 -77.186255 24.949916 5.723638 -3.546358 -23.327993 -0.013467 -4.048040 4.817962 -0.172806 -0.051033 -0.124686 -0.000000 0.000000 0.000000 0.000000 0.000000 0.000000 0.000000 11.441209 -6.575395 -0.297631 48.670127 11.820939 7.907404 1.904233 48.008167 0.010300 1.740278 4.752053 0.072791 0.054232 -0.146380 0.000000 0.000000 0.000000 0.000000 0.000000 0.000000 0.000000 
-0.498852 16.903454 -0.716831 37.051855 82.996903 39.982791 -5.082220 0.067982 -2.716169 -1.526741 0.323051 -2.844254 -5.059134 0.246025 2.685594 9.303038 -12.042454 -9.400713 -1.965809 -0.134387 -0.444731 0.000000 0.000000 0.000000 -6.023032 25.734436 0.855223 -76.883525 24.326586 5.404515 -3.571072 -23.012149 -0.013025 -3.830887 4.754933 -0.161090 -0.054152 -0.122515 -0.000000 0.000000 0.000000 0.000000 0.000000 0.000000 0.000000 11.558068 -6.581748 -0.331843 49.517503 11.299680 7.873854 1.940985 47.759371 0.010355 1.683723 4.762918 0.070510 0.056583 -0.144915 0.000000 0.000000 0.000000 0.000000 0.000000 0.000000 0.000000 
-0.323190 16.906663 -0.708987 35.982024 82.473510 38.785388 -5.285926 0.007752 -2.657702 -1.569316 0.278551 -2.843927 -5.088540 0.201933 2.665251 9.338715 -12.064792 -9.413788 -1.995372 -0.136523 -0.448753 0.000000 0.000000 0.000000 -5.912369 25.565800 0.860980 -76.609718 23.621155 4.960343 -3.598283 -22.608068 -0.012468 -3.545551 4.703677 -0.147171 -0.057785 -0.119876 -0.000000 0.000000 0.000000 0.000000 0.000000 0.000000 0.000000 11.672050 -6.592010 -0.365004 50.417914 10.766476 7.775629 1.980544 47.456645 0.010397 1.609990 4.779175 0.067428 0.059151 -0.143558 0.000000 0.000000 0.000000 0.000000 0.000000 0.000000 0.000000 
-0.150677 16.910491 -0.700348 34.984205 81.961026 37.667418 -5.472447 -0.060784 -2.586512 -1.607459 0.224761 -2.840668 -5.116928 0.148753 2.646563 9.373297 -12.089341 -9.433716 -2.025712 -0.138601 -0.454715 0.000000 0.000000 0.000000 -5.775221 25.366139 0.874024 -76.362821 22.844847 4.403266 -3.627202 -22.133119 -0.011804 -3.193255 4.658520 -0.130750 -0.061855 -0.116740 -0.000000 0.000000 0.000000 0.000000 0.000000 0.000000 0.000000 11.784047 -6.611091 -0.396253 51.366135 10.228506 7.618007 2.023074 47.097424 0.010438 1.524798 4.801470 0.063947 0.061865 -0.142262 0.000000 0.000000 0.000000 0.000000 0.000000 0.000000 0.000000 
